<?xml version="1.0" encoding="UTF-8"?>
<svg version="1.1" xmlns="http://www.w3.org/2000/svg" width="500" height="500">
<path d="M0 0 C0.33 0.33 0.66 0.66 1 1 C0.49996278 6.71063887 -0.64240735 12.11360986 -2.06640625 17.65625 C-2.26475571 18.44398804 -2.46310516 19.23172607 -2.66746521 20.04333496 C-3.29468693 22.53004228 -3.92847319 25.01502006 -4.5625 27.5 C-4.99197367 29.19780613 -5.42101426 30.89572187 -5.84960938 32.59375 C-6.89474016 36.73044998 -7.94575682 40.86561337 -9 45 C-13.11058807 45.95165687 -17.08961041 46.23519197 -21.30078125 46.4296875 C-22.75539644 46.50119528 -24.20998539 46.57323831 -25.66455078 46.64575195 C-26.42286194 46.68270172 -27.1811731 46.71965149 -27.96246338 46.75772095 C-82.01384995 49.45516632 -148.82116662 58.95923821 -189 99 C-189.79148438 99.76828125 -190.58296875 100.5365625 -191.3984375 101.328125 C-199.50415366 109.67620477 -204.53016187 118.54396131 -204.375 130.3125 C-204.28027034 132.54315805 -204.16629215 134.77353285 -204 137 C-203.53851563 136.31035156 -203.07703125 135.62070313 -202.6015625 134.91015625 C-178.83644303 100.67147622 -129.94098364 88.14407574 -91.3125 80.5625 C-89.99451416 80.2984436 -89.99451416 80.2984436 -88.64990234 80.02905273 C-87.83344238 79.87637939 -87.01698242 79.72370605 -86.17578125 79.56640625 C-85.46333252 79.43177979 -84.75088379 79.29715332 -84.0168457 79.15844727 C-81.78988555 78.98349301 -80.12375948 79.34614565 -78 80 C-79.2388752 85.19764112 -80.48415362 90.39369037 -81.73535156 95.58837891 C-82.15996146 97.35520987 -82.5828286 99.12246061 -83.00390625 100.89013672 C-83.60998512 103.43309502 -84.2223465 105.97447028 -84.8359375 108.515625 C-85.02247894 109.30430969 -85.20902039 110.09299438 -85.4012146 110.90557861 C-87.33405677 118.8551313 -87.33405677 118.8551313 -89 121 C-91.54345703 122.00146484 -91.54345703 122.00146484 -94.7578125 122.7109375 C-96.52088745 123.11880493 -96.52088745 123.11880493 -98.31958008 123.53491211 C-99.57536865 123.81214111 -100.83115723 124.08937012 -102.125 124.375 C-125.4735201 129.88516227 -151.79885611 137.98608585 -165.5390625 159.3671875 C-171.79396163 170.6393854 -174.39322225 181.68015402 -174.3125 194.5 C-174.30686035 195.45559814 -174.3012207 196.41119629 -174.29541016 197.39575195 C-173.8334849 224.89859854 -163.17079443 251.81272283 -151.35009766 276.31665039 C-149.61403796 280.02904738 -148.70837182 282.08419684 -150 286 C-159.98668657 277.92565766 -167.83966693 267.9749108 -175.6015625 257.82226562 C-176.51172577 256.63625678 -177.42809834 255.45497885 -178.3515625 254.27929688 C-197.74501972 229.58382723 -216.17990246 196.53003661 -213 164 C-212.21783688 158.62155751 -211.15823935 153.30859702 -210 148 C-210.86882812 147.29875 -211.73765625 146.5975 -212.6328125 145.875 C-224.61157956 136.07371739 -234.51942153 125.03905658 -236.21875 108.92578125 C-236.78782205 95.71856748 -231.43216858 83.77251006 -222.80126953 74.05957031 C-220.26613072 71.30658671 -217.6530219 68.63909985 -215 66 C-214.18402344 65.18402344 -213.36804688 64.36804688 -212.52734375 63.52734375 C-163.0859974 16.72727133 -66.78456173 -2.61900242 0 0 Z " fill="#275F58" transform="translate(364,100)"/>
<path d="M0 0 C1.98090296 2.97135444 3.11491652 5.63501886 4.390625 8.9609375 C4.85339844 10.15589844 5.31617188 11.35085938 5.79296875 12.58203125 C6.75018333 15.07104597 7.70498341 17.56098168 8.66015625 20.05078125 C11.47498485 27.31660604 14.48991584 34.318825 17.98730469 41.27978516 C19.04890028 44.13135171 19.12086864 45.22762993 18 48 C7.91253656 39.84417849 0.10648473 29.7702993 -7.78369141 19.56396484 C-9.49960477 17.3575937 -11.2474953 15.17735432 -13 13 C-12.67 12.34 -12.34 11.68 -12 11 C-11.34 11.33 -10.68 11.66 -10 12 C-10 11.34 -10 10.68 -10 10 C-9.34 10 -8.68 10 -8 10 C-8 9.34 -8 8.68 -8 8 C-5 7 -5 7 -2 8 C-1.67 7.34 -1.34 6.68 -1 6 C-0.34 6 0.32 6 1 6 C0.67 4.02 0.34 2.04 0 0 Z " fill="#386762" transform="translate(196,338)"/>
<path d="M0 0 C0.99 0.66 1.98 1.32 3 2 C2.32904297 2.87398437 2.32904297 2.87398437 1.64453125 3.765625 C-7.69902482 16.43620423 -11.40676396 29.27162826 -11.1875 44.875 C-11.18105469 45.83229004 -11.17460937 46.78958008 -11.16796875 47.77587891 C-11.09442677 54.55438119 -10.79585174 61.26368349 -10 68 C-12 64.25 -12 64.25 -12 62 C-12.99 61.67 -13.98 61.34 -15 61 C-15 58.69 -15 56.38 -15 54 C-14.67 54 -14.34 54 -14 54 C-14 51.03 -14 48.06 -14 45 C-14.33 45 -14.66 45 -15 45 C-15.22304441 43.25181409 -15.4278645 41.50129677 -15.625 39.75 C-15.74101562 38.77546875 -15.85703125 37.8009375 -15.9765625 36.796875 C-16.00175496 33.7905753 -15.39849463 32.58429046 -14 30 C-13.79697133 27.93356701 -13.79697133 27.93356701 -13.9375 25.875 C-14 22 -14 22 -13 20 C-13.66 19.67 -14.32 19.34 -15 19 C-14.67 17.35 -14.34 15.7 -14 14 C-13.01 14 -12.02 14 -11 14 C-10.01 13.67 -9.02 13.34 -8 13 C-7.690625 12.01 -7.38125 11.02 -7.0625 10 C-6.711875 9.01 -6.36125 8.02 -6 7 C-4.66666667 6.66666667 -3.33333333 6.33333333 -2 6 C-0.6954344 3.00384054 -0.6954344 3.00384054 0 0 Z " fill="#2F5751" transform="translate(201,250)"/>
<path d="M0 0 C3.21336017 4.82004026 5.33282213 10.15650547 7.6875 15.4375 C8.21150391 16.58283203 8.73550781 17.72816406 9.27539062 18.90820312 C9.76587891 20.00970703 10.25636719 21.11121094 10.76171875 22.24609375 C11.4417395 23.75707642 11.4417395 23.75707642 12.13549805 25.29858398 C13.03437353 28.10741123 13.05459877 29.29650931 12 32 C4.38522892 25.84337657 -1.94068453 18.67330921 -8 11 C-7.67 10.34 -7.34 9.68 -7 9 C-5.9171875 9.928125 -5.9171875 9.928125 -4.8125 10.875 C-2.21618062 12.83666353 -0.05328334 13.95316 3 15 C2.2575 14.071875 2.2575 14.071875 1.5 13.125 C-0.60494276 8.73970259 -0.25075227 4.78286739 0 0 Z " fill="#465D5B" transform="translate(202,354)"/>
<path d="M0 0 C0 0.33 0 0.66 0 1 C-0.93457031 1.04487549 -1.86914062 1.08975098 -2.83203125 1.13598633 C-21.66343618 2.06346536 -40.33588671 3.1963197 -59 6 C-60.40958984 6.21172852 -60.40958984 6.21172852 -61.84765625 6.42773438 C-67.23829769 7.24708221 -72.62131421 8.10566663 -78 9 C-76.25 7 -76.25 7 -74 5 C-72.68 5 -71.36 5 -70 5 C-70 4.34 -70 3.68 -70 3 C-20.03468321 -0.58165209 -20.03468321 -0.58165209 0 0 Z " fill="#738B88" transform="translate(350,145)"/>
<path d="M0 0 C-0.66 1.65 -1.32 3.3 -2 5 C-3.093125 4.814375 -4.18625 4.62875 -5.3125 4.4375 C-8.93624133 3.7421932 -8.93624133 3.7421932 -12 5 C-12.33 5.66 -12.66 6.32 -13 7 C-12.34 7.33 -11.68 7.66 -11 8 C-11.66 8 -12.32 8 -13 8 C-13 8.66 -13 9.32 -13 10 C-13.598125 9.79375 -14.19625 9.5875 -14.8125 9.375 C-17.28450846 8.69328085 -17.28450846 8.69328085 -20 11 C-20.99 12.485 -20.99 12.485 -22 14 C-22.66 14 -23.32 14 -24 14 C-24 14.66 -24 15.32 -24 16 C-24.66 16 -25.32 16 -26 16 C-26 15.01 -26 14.02 -26 13 C-26.99 13.33 -27.98 13.66 -29 14 C-29.33 14.99 -29.66 15.98 -30 17 C-31.84765625 17.73046875 -31.84765625 17.73046875 -34.0625 18.1875 C-34.79597656 18.34605469 -35.52945313 18.50460938 -36.28515625 18.66796875 C-36.85105469 18.77753906 -37.41695312 18.88710937 -38 19 C-34.24153644 14.89526724 -30.43329974 12.21972836 -25.5625 9.5625 C-24.86745361 9.17852051 -24.17240723 8.79454102 -23.45629883 8.39892578 C-4.95128997 -1.65042999 -4.95128997 -1.65042999 0 0 Z " fill="#567A74" transform="translate(218,198)"/>
<path d="M0 0 C1.17571451 3.67410785 1.07366746 7.16929183 1 11 C1.33 11 1.66 11 2 11 C2.0879698 15.31052017 2.08932982 19.41439343 1.4375 23.6875 C0.83304986 26.99626719 0.83304986 26.99626719 1.5625 30.25 C2 33 2 33 0 36 C-4.43761074 23.18243684 -4.91262203 14.99477057 -1 2 C-0.67 1.34 -0.34 0.68 0 0 Z " fill="#2E5E56" transform="translate(132,188)"/>
<path d="M0 0 C1.32 0.66 2.64 1.32 4 2 C4 2.99 4 3.98 4 5 C3.34 5 2.68 5 2 5 C2 5.66 2 6.32 2 7 C3.32 7.33 4.64 7.66 6 8 C5.57444637 13.42580873 4.47045561 15.89855246 1 20 C-1.09978842 24.86266791 -1.55873598 29.77450505 -2 35 C-2.33 35 -2.66 35 -3 35 C-3.36430788 26.36455401 -2.85415285 18.63828642 -0.89135742 10.24414062 C-0.50793467 8.51297493 -0.24522751 6.75607834 0 5 C-0.66 4.01 -1.32 3.02 -2 2 C-1.34 2 -0.68 2 0 2 C0 1.34 0 0.68 0 0 Z " fill="#577B79" transform="translate(154,243)"/>
<path d="M0 0 C0 0.33 0 0.66 0 1 C-1.27875 1.12375 -2.5575 1.2475 -3.875 1.375 C-7.34790936 1.69042399 -7.34790936 1.69042399 -10 4 C-13.47572882 4.96864574 -16.89126247 5.80308821 -20.44140625 6.43359375 C-23.1600802 7.0354376 -25.55583167 7.93147739 -28.125 9 C-30.74234287 10.08194112 -33.3115556 11.10385187 -36 12 C-36 11.34 -36 10.68 -36 10 C-36.99 10.495 -36.99 10.495 -38 11 C-39.99960012 11.039992 -42.00047242 11.04346799 -44 11 C-40.94935294 8.9662353 -38.58041441 8.15018274 -35.08203125 7.125 C-33.90962891 6.77953125 -32.73722656 6.4340625 -31.52929688 6.078125 C-29.68948242 5.54445313 -29.68948242 5.54445313 -27.8125 5 C-26.60529297 4.64421875 -25.39808594 4.2884375 -24.15429688 3.921875 C-5.81283035 -1.45320759 -5.81283035 -1.45320759 0 0 Z " fill="#577370" transform="translate(266,115)"/>
<path d="M0 0 C-1.98 8.25 -3.96 16.5 -6 25 C-8 22 -8 22 -8 20 C-7.34 20 -6.68 20 -6 20 C-6.08378906 19.443125 -6.16757812 18.88625 -6.25390625 18.3125 C-6.97056584 12.94208892 -6.87482711 8.34616568 -6 3 C-8.31 2.67 -10.62 2.34 -13 2 C-13.33 2.66 -13.66 3.32 -14 4 C-17.63 4 -21.26 4 -25 4 C-20.72874238 1.86437119 -17.14475066 1.11291119 -12.5 0.3125 C-11.74074219 0.17005859 -10.98148437 0.02761719 -10.19921875 -0.11914062 C-6.31117475 -0.8034636 -3.88971173 -0.97242793 0 0 Z " fill="#5E7D77" transform="translate(286,180)"/>
<path d="M0 0 C1.875 0.125 1.875 0.125 4 1 C6.07190488 5.35100024 6.19055047 9.23623816 6 14 C6.66 13.67 7.32 13.34 8 13 C8 14.65 8 16.3 8 18 C2.95575532 17.55491959 0.55556591 15.39019075 -3 12 C-3 11.34 -3 10.68 -3 10 C0.01031744 9.06576355 0.86650268 8.95550089 4 10 C4 9.01 4 8.02 4 7 C3.01 6.67 2.02 6.34 1 6 C0.67 4.02 0.34 2.04 0 0 Z " fill="#325855" transform="translate(197,351)"/>
<path d="M0 0 C0.99 0.33 1.98 0.66 3 1 C2.30961951 8.70114573 0.3557448 16.02454302 -1.5625 23.5 C-1.8956223 24.81238839 -2.22830821 26.12488763 -2.56054688 27.4375 C-3.36942321 30.62611395 -4.18268943 33.81353948 -5 37 C-5.66 36.67 -6.32 36.34 -7 36 C-6.855625 35.46632812 -6.71125 34.93265625 -6.5625 34.3828125 C-5.27071137 29.19771648 -4.92967215 24.57190494 -5.0625 19.2421875 C-4.98605743 16.4998104 -4.28726396 14.41361993 -3 12 C-2.34 12 -1.68 12 -1 12 C-1 10.68 -1 9.36 -1 8 C-0.34 8 0.32 8 1 8 C0.67 7.34 0.34 6.68 0 6 C-0.039992 4.00039988 -0.04346799 1.99952758 0 0 Z " fill="#627F7C" transform="translate(360,108)"/>
<path d="M0 0 C3.3 0.66 6.6 1.32 10 2 C7.70060215 3.5329319 5.49256562 4.84667599 3.05859375 6.12890625 C2.31029297 6.52400391 1.56199219 6.91910156 0.79101562 7.32617188 C0.01435547 7.73416016 -0.76230469 8.14214844 -1.5625 8.5625 C-2.73329102 9.1802832 -2.73329102 9.1802832 -3.92773438 9.81054688 C-9.56894841 12.78447421 -9.56894841 12.78447421 -12 14 C-12.33 13.01 -12.66 12.02 -13 11 C-10.56862488 7.35293732 -9.10666735 7.17333353 -5 6 C-4.01 5.67 -3.02 5.34 -2 5 C-0.78130071 2.49552484 -0.78130071 2.49552484 0 0 Z " fill="#577573" transform="translate(205,170)"/>
<path d="M0 0 C0.495 0.495 0.495 0.495 1 1 C0.82364548 3.69082872 0.38164079 6.32851446 0 9 C-0.33 9 -0.66 9 -1 9 C-1 6.69 -1 4.38 -1 2 C-1.88671387 2.06058594 -2.77342773 2.12117188 -3.68701172 2.18359375 C-7.02294193 2.40990604 -10.35904833 2.63317863 -13.6953125 2.85449219 C-15.13061378 2.95030755 -16.56583817 3.04728291 -18.00097656 3.14550781 C-26.01036357 3.69287178 -33.96629892 4.12577223 -42 4 C-42 4.66 -42 5.32 -42 6 C-44.97 5.67 -47.94 5.34 -51 5 C-51 4.67 -51 4.34 -51 4 C-47.12661985 3.5880125 -43.25291141 3.17926264 -39.37890625 2.77319336 C-37.43212158 2.56850584 -35.48558771 2.36143729 -33.5390625 2.15429688 C-9.4126875 -0.369125 -9.4126875 -0.369125 0 0 Z " fill="#97AEAB" transform="translate(364,100)"/>
<path d="M0 0 C1.07249109 3.74228818 0.64449365 6.14186677 0 10 C-0.15463887 13.54196642 -0.14182009 17.08016517 -0.125 20.625 C-0.12306641 21.60033691 -0.12113281 22.57567383 -0.11914062 23.58056641 C-0.07810087 30.43306486 0.19541122 37.18973071 1 44 C-1 40.25 -1 40.25 -1 38 C-1.99 37.67 -2.98 37.34 -4 37 C-4 34.69 -4 32.38 -4 30 C-3.67 30 -3.34 30 -3 30 C-2.97287934 28.56260487 -2.95354933 27.12506137 -2.9375 25.6875 C-2.92589844 24.88699219 -2.91429687 24.08648437 -2.90234375 23.26171875 C-2.90342145 20.83138666 -2.90342145 20.83138666 -4 18 C-3.74633789 16.00708008 -3.74633789 16.00708008 -3.22265625 13.76953125 C-3.03896484 12.96708984 -2.85527344 12.16464844 -2.66601562 11.33789062 C-2.36727539 10.08782227 -2.36727539 10.08782227 -2.0625 8.8125 C-1.86720703 7.96751953 -1.67191406 7.12253906 -1.47070312 6.25195312 C-0.98758736 4.166307 -0.49472096 2.08292386 0 0 Z " fill="#819A97" transform="translate(190,274)"/>
<path d="M0 0 C1.485 0.99 1.485 0.99 3 2 C2.67 3.98 2.34 5.96 2 8 C2.66 8.33 3.32 8.66 4 9 C5.09036928 11.9737344 5.03864166 12.88407501 4 16 C4.66 16 5.32 16 6 16 C6.33 15.01 6.66 14.02 7 13 C7.07347656 13.85271484 7.07347656 13.85271484 7.1484375 14.72265625 C7.52388493 18.60012195 8.01663509 22.05637447 9.125 25.8125 C10.00176815 29.00644113 9.92936117 29.9828486 9 33 C-0.36549128 11.08656894 -0.36549128 11.08656894 0 0 Z " fill="#66867D" transform="translate(152,280)"/>
<path d="M0 0 C0.33 0.66 0.66 1.32 1 2 C0.01 2.66 -0.98 3.32 -2 4 C-2.144375 4.78375 -2.28875 5.5675 -2.4375 6.375 C-3.14602321 9.68144164 -4.572497 10.7196184 -7 13 C-8.23512079 15.13309192 -8.23512079 15.13309192 -9 17 C-10.65 17 -12.3 17 -14 17 C-10.7123778 10.0370643 -6.09488423 4.64372132 0 0 Z " fill="#688682" transform="translate(175,220)"/>
<path d="M0 0 C0.99 0.33 1.98 0.66 3 1 C3 1.99 3 2.98 3 4 C3.99 4 4.98 4 6 4 C6.81837442 5.41328129 7.62946219 6.83078346 8.4375 8.25 C9.11619141 9.43335938 9.11619141 9.43335938 9.80859375 10.640625 C10.90191905 12.80576757 11.49000764 14.64618909 12 17 C12.6469365 18.6744239 13.30959426 20.34302621 14 22 C9.83742785 18.17753144 7.02530676 14.18068431 4.1875 9.3125 C3.78080078 8.63638672 3.37410156 7.96027344 2.95507812 7.26367188 C0 2.27232143 0 2.27232143 0 0 Z " fill="#768D8A" transform="translate(169,327)"/>
<path d="M0 0 C0.90105469 0.00902344 1.80210937 0.01804688 2.73046875 0.02734375 C3.41753906 0.03894531 4.10460937 0.05054688 4.8125 0.0625 C1.48173849 2.28300767 -1.85606836 3.40723398 -5.625 4.625 C-6.29337891 4.84607422 -6.96175781 5.06714844 -7.65039062 5.29492188 C-10.80561356 6.3299851 -13.94830807 7.32519033 -17.1875 8.0625 C-17.1875 6.7425 -17.1875 5.4225 -17.1875 4.0625 C-4.8125 -0.0625 -4.8125 -0.0625 0 0 Z " fill="#577470" transform="translate(249.1875,224.9375)"/>
<path d="M0 0 C1.18854034 3.56562102 1.10838746 6.79370528 1.0625 10.5 C1.05798828 11.17675781 1.05347656 11.85351562 1.04882812 12.55078125 C1.03628863 14.36721714 1.01840932 16.18361412 1 18 C1 18.99 1 19.98 1 21 C-2 21 -2 21 -4 20 C-3.76153643 17.88789411 -3.52259611 15.77584095 -3.28125 13.6640625 C-3.08961119 11.84881708 -2.92397508 10.03068224 -2.78125 8.2109375 C-2.7090625 7.31632813 -2.636875 6.42171875 -2.5625 5.5 C-2.50191406 4.6646875 -2.44132813 3.829375 -2.37890625 2.96875 C-2.25386719 2.3190625 -2.12882813 1.669375 -2 1 C-1.34 0.67 -0.68 0.34 0 0 Z " fill="#789490" transform="translate(159,219)"/>
<path d="M0 0 C2.83222793 3.37169992 4.52103176 6.85888893 6 11 C5.578125 13.21875 5.578125 13.21875 5 15 C0.86062408 11.69984002 -2.58662205 8.82675589 -5 4 C-3.02 4.99 -3.02 4.99 -1 6 C-1 6.66 -1 7.32 -1 8 C-0.34 8 0.32 8 1 8 C0.67 5.36 0.34 2.72 0 0 Z " fill="#CFD6D5" transform="translate(209,371)"/>
<path d="M0 0 C0.99 0.66 1.98 1.32 3 2 C2.54109375 2.61746094 2.0821875 3.23492187 1.609375 3.87109375 C-2.3661755 9.35835568 -5.5428565 14.68163101 -8 21 C-8.33 21 -8.66 21 -9 21 C-9 19.02 -9 17.04 -9 15 C-9.66 14.67 -10.32 14.34 -11 14 C-10.01 13.67 -9.02 13.34 -8 13 C-7.5359375 11.515 -7.5359375 11.515 -7.0625 10 C-6.711875 9.01 -6.36125 8.02 -6 7 C-4.66666667 6.66666667 -3.33333333 6.33333333 -2 6 C-0.6954344 3.00384054 -0.6954344 3.00384054 0 0 Z " fill="#567673" transform="translate(201,250)"/>
<path d="M0 0 C0.99 0 1.98 0 3 0 C2.6083965 5.95507399 1.62875405 10.62819824 -1 16 C-3.97 16.33 -6.94 16.66 -10 17 C-10 16.34 -10 15.68 -10 15 C-8.02 15 -6.04 15 -4 15 C-4 14.01 -4 13.02 -4 12 C-3.34 12 -2.68 12 -2 12 C-1.67 10.68 -1.34 9.36 -1 8 C-0.34 8 0.32 8 1 8 C0.67 7.34 0.34 6.68 0 6 C-0.039992 4.00039988 -0.04346799 1.99952758 0 0 Z " fill="#53726D" transform="translate(276,205)"/>
<path d="M0 0 C1.65 0 3.3 0 5 0 C2.31924579 2.77214356 -0.43868695 5.21933744 -3.5 7.5625 C-4.2528125 8.14128906 -5.005625 8.72007812 -5.78125 9.31640625 C-7.848621 10.88513319 -9.92159937 12.44592317 -12 14 C-12 12.35 -12 10.7 -12 9 C-11.34 9 -10.68 9 -10 9 C-10 8.34 -10 7.68 -10 7 C-9.360625 6.71125 -8.72125 6.4225 -8.0625 6.125 C-5.84793921 5.17176549 -5.84793921 5.17176549 -5 3 C-3.35 3 -1.7 3 0 3 C0 2.01 0 1.02 0 0 Z " fill="#647E79" transform="translate(187,184)"/>
<path d="M0 0 C0.66 0.66 1.32 1.32 2 2 C1.01 3.485 1.01 3.485 0 5 C-0.66 5 -1.32 5 -2 5 C-2 5.66 -2 6.32 -2 7 C-2.66 7 -3.32 7 -4 7 C-4 6.01 -4 5.02 -4 4 C-4.99 4.33 -5.98 4.66 -7 5 C-7.33 5.99 -7.66 6.98 -8 8 C-9.84765625 8.73046875 -9.84765625 8.73046875 -12.0625 9.1875 C-12.79597656 9.34605469 -13.52945313 9.50460938 -14.28515625 9.66796875 C-14.85105469 9.77753906 -15.41695312 9.88710937 -16 10 C-11.84571676 5.46805465 -6.45756157 0.47833789 0 0 Z " fill="#3D6965" transform="translate(196,207)"/>
<path d="M0 0 C-0.99 0.495 -0.99 0.495 -2 1 C-2 1.66 -2 2.32 -2 3 C-2.85658203 2.94779297 -2.85658203 2.94779297 -3.73046875 2.89453125 C-10.17113822 2.67950095 -15.71957073 3.72278746 -21.921875 5.44140625 C-25.26437761 6.04797716 -27.70708441 5.74435667 -31 5 C-31 4.67 -31 4.34 -31 4 C-27.33535447 3.3218963 -23.66801404 2.65961856 -20 2 C-18.45505859 1.71382813 -18.45505859 1.71382813 -16.87890625 1.421875 C-11.15409731 0.40088997 -5.81441862 -0.22363149 0 0 Z " fill="#85A09D" transform="translate(313,105)"/>
<path d="M0 0 C0.33 0 0.66 0 1 0 C1 2.64 1 5.28 1 8 C2.32 7.34 3.64 6.68 5 6 C4.98839844 6.77085937 4.97679687 7.54171875 4.96484375 8.3359375 C4.95582031 9.33882812 4.94679687 10.34171875 4.9375 11.375 C4.92589844 12.37273437 4.91429687 13.37046875 4.90234375 14.3984375 C4.81993398 16.98432453 4.81993398 16.98432453 6 19 C5.34 19.99 4.68 20.98 4 22 C1.39161312 14.46595398 -0.54249536 8.00180661 0 0 Z " fill="#6C8785" transform="translate(128,202)"/>
<path d="M0 0 C2.31 0.33 4.62 0.66 7 1 C7 2.32 7 3.64 7 5 C7.61875 5.28875 8.2375 5.5775 8.875 5.875 C11 7 11 7 13 9 C12.67 9.66 12.34 10.32 12 11 C8.81293058 9.56438314 6.37830895 7.79733671 3.75 5.5 C3.04359375 4.8915625 2.3371875 4.283125 1.609375 3.65625 C0 2 0 2 0 0 Z " fill="#567673" transform="translate(140,234)"/>
<path d="M0 0 C-1.32 0.33 -2.64 0.66 -4 1 C-4 1.66 -4 2.32 -4 3 C-4.66 3 -5.32 3 -6 3 C-6 3.66 -6 4.32 -6 5 C-11.3212615 6.08318169 -16.63486869 7.152874 -22 8 C-18.36430434 4.84018074 -14.32893593 3.39134311 -9.875 1.75 C-9.14667969 1.46898437 -8.41835937 1.18796875 -7.66796875 0.8984375 C-2.2494709 -1.12473545 -2.2494709 -1.12473545 0 0 Z " fill="#708784" transform="translate(222,127)"/>
<path d="M0 0 C-2.90511754 2.82179677 -4.46544831 3.94119343 -8.55078125 4.390625 C-9.79214844 4.34421875 -11.03351563 4.2978125 -12.3125 4.25 C-14.19388672 4.19585937 -14.19388672 4.19585937 -16.11328125 4.140625 C-17.06589844 4.09421875 -18.01851562 4.0478125 -19 4 C-15.91433716 1.94289144 -13.63014688 1.21653907 -10.0625 0.3125 C-8.50208984 -0.09548828 -8.50208984 -0.09548828 -6.91015625 -0.51171875 C-4.1294044 -0.97828785 -2.61519118 -0.93894816 0 0 Z " fill="#68817C" transform="translate(261,185)"/>
<path d="M0 0 C0 0.66 0 1.32 0 2 C-3.26545761 3.88391785 -6.28111761 4.49287967 -10 5 C-10 5.66 -10 6.32 -10 7 C-12.8125 8.125 -12.8125 8.125 -16 9 C-16.99 8.34 -17.98 7.68 -19 7 C-17.35 7 -15.7 7 -14 7 C-14 6.34 -14 5.68 -14 5 C-13.34 5 -12.68 5 -12 5 C-12 4.34 -12 3.68 -12 3 C-8.2080182 0.81231819 -4.37268114 0 0 0 Z " fill="#335852" transform="translate(230,125)"/>
<path d="M0 0 C0 0.66 0 1.32 0 2 C0.66 2.33 1.32 2.66 2 3 C-2.75 6 -2.75 6 -5 6 C-5.66 7.98 -6.32 9.96 -7 12 C-7.33 11.01 -7.66 10.02 -8 9 C-8.66 8.67 -9.32 8.34 -10 8 C-8.71451591 6.66070495 -7.42141845 5.32871357 -6.125 4 C-5.04605469 2.88625 -5.04605469 2.88625 -3.9453125 1.75 C-2 0 -2 0 0 0 Z " fill="#537570" transform="translate(156,161)"/>
<path d="M0 0 C0.33 0 0.66 0 1 0 C0.88556397 2.0839403 0.75804453 4.16716493 0.625 6.25 C0.55539062 7.41015625 0.48578125 8.5703125 0.4140625 9.765625 C0.03751692 12.70694334 -0.4774123 14.49949011 -2 17 C-4.64 16.67 -7.28 16.34 -10 16 C-10 15.67 -10 15.34 -10 15 C-7.69 15 -5.38 15 -3 15 C-2.814375 13.2365625 -2.814375 13.2365625 -2.625 11.4375 C-2.13564065 7.45879574 -1.1944795 3.82233441 0 0 Z " fill="#315753" transform="translate(355,128)"/>
<path d="M0 0 C0.33 0 0.66 0 1 0 C1.69951063 2.413762 2.38483919 4.83010234 3.0625 7.25 C3.26166016 7.93191406 3.46082031 8.61382812 3.66601562 9.31640625 C5.40009269 15.58342161 5.40009269 15.58342161 4 19 C3.01 18.34 2.02 17.68 1 17 C0.61615491 14.06402461 0.396157 11.31972627 0.3125 8.375 C0.27833984 7.57320313 0.24417969 6.77140625 0.20898438 5.9453125 C0.12643122 3.96403682 0.06154084 1.98203963 0 0 Z " fill="#879C97" transform="translate(191,319)"/>
<path d="M0 0 C3.96 0.33 7.92 0.66 12 1 C12 1.66 12 2.32 12 3 C2.595 3.495 2.595 3.495 -7 4 C-6.67 3.34 -6.34 2.68 -6 2 C-2.9375 1.375 -2.9375 1.375 0 1 C0 0.67 0 0.34 0 0 Z " fill="#2D5753" transform="translate(298,144)"/>
<path d="M0 0 C-0.72265625 1.9453125 -0.72265625 1.9453125 -2 4 C-4.05859375 4.6796875 -4.05859375 4.6796875 -6.4375 4.875 C-7.21996094 4.95492187 -8.00242188 5.03484375 -8.80859375 5.1171875 C-11 5 -11 5 -14 3 C-12.4188708 2.49307308 -10.83498617 1.99473557 -9.25 1.5 C-7.92742187 1.08234375 -7.92742187 1.08234375 -6.578125 0.65625 C-4 0 -4 0 0 0 Z " fill="#637B78" transform="translate(242,189)"/>
<path d="M0 0 C0.66 0.66 1.32 1.32 2 2 C-0.90600261 3.25664978 -2.79604584 4 -6 4 C-6 3.34 -6 2.68 -6 2 C-6.86625 2.185625 -7.7325 2.37125 -8.625 2.5625 C-12.05152628 3.00667933 -14.64212371 2.71954492 -18 2 C-18 1.67 -18 1.34 -18 1 C-4.98368679 -0.31810767 -4.98368679 -0.31810767 0 0 Z " fill="#385D5A" transform="translate(350,102)"/>
<path d="M0 0 C1.27118864 0.79109602 2.54193623 1.58290078 3.8125 2.375 C4.52019531 2.81585938 5.22789062 3.25671875 5.95703125 3.7109375 C7.65432039 4.78188476 9.33014358 5.88676239 11 7 C10.67 8.65 10.34 10.3 10 12 C6.15216516 8.93922229 2.85267377 6.05957421 0 2 C0 1.34 0 0.68 0 0 Z " fill="#8EA19E" transform="translate(194,363)"/>
<path d="M0 0 C-2.11997834 1.19733988 -4.24513676 2.38298713 -6.375 3.5625 C-6.97828125 3.90474609 -7.5815625 4.24699219 -8.203125 4.59960938 C-9.76978241 5.46127095 -11.38290862 6.23718183 -13 7 C-13.66 6.67 -14.32 6.34 -15 6 C-14 3 -14 3 -11.85546875 1.796875 C-10.97503906 1.45140625 -10.09460938 1.1059375 -9.1875 0.75 C-8.31480469 0.39421875 -7.44210938 0.0384375 -6.54296875 -0.328125 C-3.86358764 -1.03604136 -2.56787877 -0.9337741 0 0 Z " fill="#4F716C" transform="translate(231,234)"/>
<path d="M0 0 C1.97625073 2.9643761 3.29886906 5.78787746 4.6875 9.0625 C5.14511719 10.12597656 5.60273438 11.18945312 6.07421875 12.28515625 C6.37972656 13.18105469 6.68523437 14.07695312 7 15 C6.67 15.66 6.34 16.32 6 17 C5.01 15.35 4.02 13.7 3 12 C2.01 12.495 2.01 12.495 1 13 C-0.00496852 9.98509443 -0.10335303 7.95818308 -0.0625 4.8125 C-0.05347656 3.91144531 -0.04445312 3.01039063 -0.03515625 2.08203125 C-0.02355469 1.39496094 -0.01195312 0.70789063 0 0 Z " fill="#A1BAB6" transform="translate(202,354)"/>
<path d="M0 0 C3.3 0.66 6.6 1.32 10 2 C6.99559979 4.00293347 5.29006055 4.49271626 1.8125 5.125 C0.91144531 5.29257813 0.01039063 5.46015625 -0.91796875 5.6328125 C-1.60503906 5.75398437 -2.29210937 5.87515625 -3 6 C-2.01 4.02 -1.02 2.04 0 0 Z " fill="#446A66" transform="translate(205,170)"/>
<path d="M0 0 C-1.8125 2 -1.8125 2 -4 4 C-4.99 4 -5.98 4 -7 4 C-7 3.34 -7 2.68 -7 2 C-7.99 2.495 -7.99 2.495 -9 3 C-10.99960012 3.039992 -13.00047242 3.04346799 -15 3 C-9.84110855 -0.43926097 -6.07788122 -1.44711458 0 0 Z " fill="#69827F" transform="translate(237,123)"/>
<path d="M0 0 C0 0.33 0 0.66 0 1 C-1.27875 1.12375 -2.5575 1.2475 -3.875 1.375 C-7.34790936 1.69042399 -7.34790936 1.69042399 -10 4 C-12.72869407 3.96712417 -15.2966618 3.43602229 -18 3 C-12.2856125 -0.33339271 -6.45288922 -1.6132223 0 0 Z " fill="#63807A" transform="translate(266,115)"/>
<path d="M0 0 C4.29 0 8.58 0 13 0 C13 0.99 13 1.98 13 3 C8.07872966 3.16682272 4.49656104 3.24828052 0 1 C0 0.67 0 0.34 0 0 Z " fill="#185B54" transform="translate(291,109)"/>
<path d="M0 0 C0.33 0.99 0.66 1.98 1 3 C-2.63 3.33 -6.26 3.66 -10 4 C-7 0 -7 0 -5 -0.8125 C-3 -1 -3 -1 0 0 Z " fill="#185E55" transform="translate(245,124)"/>
<path d="M0 0 C1.485 0.99 1.485 0.99 3 2 C2.67 3.98 2.34 5.96 2 8 C2.66 8.33 3.32 8.66 4 9 C5.2757381 12.24733335 4.83241855 14.67032582 4 18 C1.03343051 12.50312124 -0.4036063 6.25589769 0 0 Z " fill="#76908D" transform="translate(152,280)"/>
<path d="M0 0 C0 0.33 0 0.66 0 1 C-5.22512279 2.46670113 -9.5814234 3.22577402 -15 3 C-13.63969519 1.04456184 -12.47999734 0.11923501 -10.16015625 -0.45703125 C-6.5804283 -0.95699325 -3.45882781 -1.29706043 0 0 Z " fill="#315B53" transform="translate(273,184)"/>
<path d="M0 0 C0.66 0.33 1.32 0.66 2 1 C2.66 1 3.32 1 4 1 C4 1.66 4 2.32 4 3 C4.66 3 5.32 3 6 3 C5.67 3.99 5.34 4.98 5 6 C4.01 5.67 3.02 5.34 2 5 C1.01 6.485 1.01 6.485 0 8 C-0.66 7.67 -1.32 7.34 -2 7 C-1.34 4.69 -0.68 2.38 0 0 Z " fill="#235B52" transform="translate(162,200)"/>
<path d="M0 0 C1.32 0.66 2.64 1.32 4 2 C0.535 4.97 0.535 4.97 -3 8 C-3 7.34 -3 6.68 -3 6 C-3.66 6 -4.32 6 -5 6 C-5 4 -5 4 -3 2 C-2.01 2 -1.02 2 0 2 C0 1.34 0 0.68 0 0 Z " fill="#65847E" transform="translate(171,197)"/>
<path d="M0 0 C2.875 -0.125 2.875 -0.125 6 0 C6.66 0.66 7.32 1.32 8 2 C4.7 3.32 1.4 4.64 -2 6 C-2.33 5.01 -2.66 4.02 -3 3 C-2.34 2.67 -1.68 2.34 -1 2 C-0.67 1.34 -0.34 0.68 0 0 Z " fill="#56756D" transform="translate(218,166)"/>
<path d="M0 0 C1.32 0.33 2.64 0.66 4 1 C4.66 3.64 5.32 6.28 6 9 C5.01 9.495 5.01 9.495 4 10 C4 9.01 4 8.02 4 7 C3.01 6.67 2.02 6.34 1 6 C0.67 4.02 0.34 2.04 0 0 Z " fill="#3F625D" transform="translate(197,351)"/>
<path d="M0 0 C2.0625 0.4375 2.0625 0.4375 4 1 C2 5 0 9 -2 13 C-3.08828929 9.73513213 -2.89901381 8.63009917 -2.125 5.375 C-1.94195312 4.57835937 -1.75890625 3.78171875 -1.5703125 2.9609375 C-1 1 -1 1 0 0 Z " fill="#78938F" transform="translate(164,204)"/>
<path d="M0 0 C0 0.66 0 1.32 0 2 C-5.445 2.495 -5.445 2.495 -11 3 C-11 3.66 -11 4.32 -11 5 C-13.97 4.505 -13.97 4.505 -17 4 C-14.19547298 2.48300584 -11.6142698 1.54691437 -8.5 0.875 C-7.7471875 0.70742187 -6.994375 0.53984375 -6.21875 0.3671875 C-4 0 -4 0 0 0 Z " fill="#7B9591" transform="translate(281,110)"/>
<path d="M0 0 C1.98 0.495 1.98 0.495 4 1 C2.515 7.435 2.515 7.435 1 14 C-0.98496914 10.03006171 -1.22773854 9.36424241 -0.625 5.3125 C-0.51414062 4.52488281 -0.40328125 3.73726562 -0.2890625 2.92578125 C-0.19367188 2.29027344 -0.09828125 1.65476563 0 1 C0 0.67 0 0.34 0 0 Z " fill="#748B89" transform="translate(282,179)"/>
<path d="M0 0 C2.86214633 2.32549389 3.91655233 3.40394523 4.4375 7.125 C4.293125 8.07375 4.14875 9.0225 4 10 C3.01 10.66 2.02 11.32 1 12 C1.020625 11.236875 1.04125 10.47375 1.0625 9.6875 C1.12942841 6.89814214 1.12942841 6.89814214 0 4 C0 2.68 0 1.36 0 0 Z " fill="#2E5A51" transform="translate(153,276)"/>
<path d="M0 0 C0.61875 0.185625 1.2375 0.37125 1.875 0.5625 C4.04160178 1.23686176 4.04160178 1.23686176 6 0 C6.66 0.66 7.32 1.32 8 2 C6.21189234 2.69670416 4.41937948 3.38211189 2.625 4.0625 C1.62726563 4.44535156 0.62953125 4.82820312 -0.3984375 5.22265625 C-3 6 -3 6 -5 5 C-4 3 -4 3 -1 2 C-0.67 1.34 -0.34 0.68 0 0 Z " fill="#65807A" transform="translate(232,161)"/>
<path d="M0 0 C0.66 0 1.32 0 2 0 C2 2.97 2 5.94 2 9 C1.01 9.33 0.02 9.66 -1 10 C-1.02689216 8.52093108 -1.04634621 7.04172517 -1.0625 5.5625 C-1.07410156 4.73878906 -1.08570313 3.91507812 -1.09765625 3.06640625 C-1 1 -1 1 0 0 Z " fill="#3E625F" transform="translate(190,265)"/>
<path d="M0 0 C0 1.32 0 2.64 0 4 C-0.99 3.67 -1.98 3.34 -3 3 C-3.99 3.66 -4.98 4.32 -6 5 C-6.99 4.67 -7.98 4.34 -9 4 C-6.56225426 0.2214941 -6.56225426 0.2214941 -3.9375 -0.8125 C-2 -1 -2 -1 0 0 Z " fill="#2D5751" transform="translate(197,139)"/>
<path d="M0 0 C3.32382587 4.33542505 4.12018668 6.47141274 4 12 C2 10.5 2 10.5 0 8 C-0.35800135 5.24128373 -0.18660165 2.79902476 0 0 Z " fill="#A6AEAB" transform="translate(209,371)"/>
<path d="M0 0 C0.99 0 1.98 0 3 0 C3.66 2.64 4.32 5.28 5 8 C3.68 8 2.36 8 1 8 C-0.35439668 5.29120665 -0.06501451 2.99066732 0 0 Z " fill="#2C5650" transform="translate(187,320)"/>
<path d="M0 0 C-0.66 1.65 -1.32 3.3 -2 5 C-3.98 4.34 -5.96 3.68 -8 3 C-8 2.34 -8 1.68 -8 1 C-3.375 -1.125 -3.375 -1.125 0 0 Z " fill="#5C7772" transform="translate(218,198)"/>
<path d="M0 0 C1.07310858 3.27185553 0.89263102 5.42947592 0.0625 8.75 C-0.22947266 9.94882813 -0.22947266 9.94882813 -0.52734375 11.171875 C-0.68332031 11.77515625 -0.83929688 12.3784375 -1 13 C-1.66 13 -2.32 13 -3 13 C-2.52060632 8.28596212 -2.03165952 4.33420699 0 0 Z " fill="#6C8580" transform="translate(132,188)"/>
<path d="M0 0 C2.97 0.495 2.97 0.495 6 1 C3.11371599 2.57554035 0.46657616 3.46276373 -2.75 4.125 C-3.54921875 4.29257813 -4.3484375 4.46015625 -5.171875 4.6328125 C-5.77515625 4.75398437 -6.3784375 4.87515625 -7 5 C-6.34 3.68 -5.68 2.36 -5 1 C-3.35 1 -1.7 1 0 1 C0 0.67 0 0.34 0 0 Z " fill="#647E7A" transform="translate(248,157)"/>
<path d="M0 0 C0.33 0.99 0.66 1.98 1 3 C-0.0725 2.979375 -1.145 2.95875 -2.25 2.9375 C-5.14790424 2.9857984 -7.28612141 3.13155885 -10 4 C-9.67 3.01 -9.34 2.02 -9 1 C-6.04335481 -0.4783226 -3.25770263 -0.06032783 0 0 Z " fill="#365A54" transform="translate(320,105)"/>
<path d="M0 0 C0.99 0.66 1.98 1.32 3 2 C2.02501855 3.5027237 1.04490611 5.00211963 0.0625 6.5 C-0.75541016 7.75296875 -0.75541016 7.75296875 -1.58984375 9.03125 C-2.05519531 9.6809375 -2.52054688 10.330625 -3 11 C-3.33 11 -3.66 11 -4 11 C-4 9.35 -4 7.7 -4 6 C-3.34 6 -2.68 6 -2 6 C-1.34 4.02 -0.68 2.04 0 0 Z " fill="#687F7C" transform="translate(201,250)"/>
<path d="M0 0 C3.3 0.33 6.6 0.66 10 1 C5.60171741 3.1991413 2.81449408 3.51855059 -2 4 C-1.34 2.68 -0.68 1.36 0 0 Z " fill="#5D7A76" transform="translate(256,221)"/>
<path d="M0 0 C0.79921875 0.11085937 1.5984375 0.22171875 2.421875 0.3359375 C3.32679688 0.47902344 3.32679688 0.47902344 4.25 0.625 C4.25 0.955 4.25 1.285 4.25 1.625 C2.83456585 1.82158808 1.41755969 2.00687546 0 2.1875 C-0.78890625 2.29191406 -1.5778125 2.39632812 -2.390625 2.50390625 C-4.75532874 2.62527349 -6.5011037 2.32133257 -8.75 1.625 C-5.5750906 -0.2828584 -3.64414789 -0.5359041 0 0 Z " fill="#325750" transform="translate(250.75,188.375)"/>
<path d="M0 0 C0.33 0 0.66 0 1 0 C1 4.95 1 9.9 1 15 C-2 11 -2 11 -1.75 8.625 C-1.5025 7.75875 -1.255 6.8925 -1 6 C-0.66055205 4.00102872 -0.32578384 2.00124361 0 0 Z " fill="#315650" transform="translate(187,294)"/>
<path d="M0 0 C1.65 0 3.3 0 5 0 C5 2.64 5 5.28 5 8 C2.27573689 5.64722731 1.1858237 3.37503669 0 0 Z " fill="#5A7970" transform="translate(133,224)"/>
<path d="M0 0 C0 3.47373467 -1.16402216 5.26043669 -2.9296875 8.18359375 C-4.0426705 10.07241526 -5.01955338 12.03910677 -6 14 C-5.67 11.03 -5.34 8.06 -5 5 C-4.34 5 -3.68 5 -3 5 C-2.5359375 4.0409375 -2.5359375 4.0409375 -2.0625 3.0625 C-1 1 -1 1 0 0 Z " fill="#305652" transform="translate(138,183)"/>
<path d="M0 0 C3.00617269 3.00617269 2.59585316 5.82381598 3 10 C2.01 10.66 1.02 11.32 0 12 C0 8.04 0 4.08 0 0 Z " fill="#40625D" transform="translate(188,312)"/>
<path d="M0 0 C0.99 0 1.98 0 3 0 C1.54744301 3.82946843 -0.42895561 5.12050295 -4 7 C-3.67 5.35 -3.34 3.7 -3 2 C-2.01 2 -1.02 2 0 2 C0 1.34 0 0.68 0 0 Z " fill="#5A7671" transform="translate(208,244)"/>
<path d="M0 0 C0 1.65 0 3.3 0 5 C-0.66 5 -1.32 5 -2 5 C-2.33 5.66 -2.66 6.32 -3 7 C-3.66 7 -4.32 7 -5 7 C-4.6875 4.625 -4.6875 4.625 -4 2 C-1 0 -1 0 0 0 Z " fill="#456560" transform="translate(161,214)"/>
<path d="M0 0 C0.66 0.33 1.32 0.66 2 1 C1.5 2.875 1.5 2.875 0 5 C-2.65177645 5.98494554 -5.20547307 6.45912382 -8 7 C-5.42215154 4.35247996 -3.08351902 2.05567935 0 0 Z " fill="#76918D" transform="translate(188,210)"/>
<path d="M0 0 C1.80125336 2.70188004 3.00243753 4.93057703 4 8 C3.67 8.99 3.34 9.98 3 11 C2.67 10.34 2.34 9.68 2 9 C1.01 8.34 0.02 7.68 -1 7 C-0.67 4.69 -0.34 2.38 0 0 Z " fill="#A2B7B6" transform="translate(198,343)"/>
<path d="M0 0 C0.99 0.33 1.98 0.66 3 1 C3 1.66 3 2.32 3 3 C3.66 3 4.32 3 5 3 C5 4.98 5 6.96 5 9 C0.57142857 3.85714286 0.57142857 3.85714286 0 0 Z " fill="#78908C" transform="translate(164,318)"/>
<path d="M0 0 C2.25 -0.25 2.25 -0.25 5 0 C7.3125 2 7.3125 2 9 4 C8.67 4.66 8.34 5.32 8 6 C4.63408134 4.55746343 2.48952921 2.66735273 0 0 Z " fill="#5F7E7A" transform="translate(144,239)"/>
<path d="M0 0 C0.625 1.8125 0.625 1.8125 1 4 C0.01 5.485 0.01 5.485 -1 7 C-1 6.34 -1 5.68 -1 5 C-1.66 5 -2.32 5 -3 5 C-3.33 4.01 -3.66 3.02 -4 2 C-2.68 1.34 -1.36 0.68 0 0 Z " fill="#205851" transform="translate(202,360)"/>
<path d="M0 0 C0.66 1.32 1.32 2.64 2 4 C2.99 5.485 2.99 5.485 4 7 C3.67 7.66 3.34 8.32 3 9 C2.01 9 1.02 9 0 9 C0 6.03 0 3.06 0 0 Z " fill="#1C5C52" transform="translate(172,322)"/>
<path d="M0 0 C0.33 0 0.66 0 1 0 C1 2.97 1 5.94 1 9 C0.01 8.67 -0.98 8.34 -2 8 C-2 6.35 -2 4.7 -2 3 C-1.34 3 -0.68 3 0 3 C0 2.01 0 1.02 0 0 Z " fill="#4C6E6A" transform="translate(158,293)"/>
<path d="M0 0 C0.66 0.33 1.32 0.66 2 1 C2 1.66 2 2.32 2 3 C1.01 3.33 0.02 3.66 -1 4 C-1.73323796 6.01508358 -1.73323796 6.01508358 -2 8 C-2.99 7.67 -3.98 7.34 -5 7 C-5 6.34 -5 5.68 -5 5 C-4.34 5 -3.68 5 -3 5 C-2.5359375 4.0409375 -2.5359375 4.0409375 -2.0625 3.0625 C-1 1 -1 1 0 0 Z " fill="#2E5A52" transform="translate(206,243)"/>
<path d="M0 0 C0.66 0.33 1.32 0.66 2 1 C-1.32307692 4.93846154 -1.32307692 4.93846154 -4.75 5.25 C-5.4925 5.1675 -6.235 5.085 -7 5 C-4.88437775 2.67281553 -2.94982021 1.14186589 0 0 Z " fill="#7D9995" transform="translate(201,203)"/>
<path d="M0 0 C2 3 2 3 1.625 5.6875 C1.41875 6.450625 1.2125 7.21375 1 8 C0.34 8 -0.32 8 -1 8 C-1.04241723 5.66705225 -1.04092937 3.33297433 -1 1 C-0.67 0.67 -0.34 0.34 0 0 Z " fill="#385250" transform="translate(130,202)"/>
<path d="M0 0 C0.66 0.33 1.32 0.66 2 1 C1.34 2.32 0.68 3.64 0 5 C-2.31 4.67 -4.62 4.34 -7 4 C-4.61426621 2.10786631 -2.92824652 0.97608217 0 0 Z " fill="#6D8883" transform="translate(198,135)"/>
<path d="M0 0 C2.64 0 5.28 0 8 0 C7.01 0.495 7.01 0.495 6 1 C6 1.66 6 2.32 6 3 C3.69 2.67 1.38 2.34 -1 2 C-0.67 1.34 -0.34 0.68 0 0 Z " fill="#728B88" transform="translate(305,105)"/>
<path d="M0 0 C0.99 0 1.98 0 3 0 C2.67 2.97 2.34 5.94 2 9 C-0.29013653 5.5647952 -0.17842973 4.014669 0 0 Z " fill="#5C8078" transform="translate(276,205)"/>
<path d="M0 0 C0.99 0 1.98 0 3 0 C3 1.32 3 2.64 3 4 C1.02 4.99 1.02 4.99 -1 6 C-1.33 5.01 -1.66 4.02 -2 3 C-1.34 2.01 -0.68 1.02 0 0 Z " fill="#4B6A67" transform="translate(194,178)"/>
<path d="M0 0 C2.475 0.495 2.475 0.495 5 1 C5 2.98 5 4.96 5 7 C3.29115995 5.37660195 1.62553283 3.70680947 0 2 C0 1.34 0 0.68 0 0 Z " fill="#8BABA9" transform="translate(183,349)"/>
<path d="M0 0 C-2.97 1.32 -5.94 2.64 -9 4 C-6.37789678 -1.24420645 -5.61031397 -1.40257849 0 0 Z " fill="#698281" transform="translate(231,234)"/>
<path d="M0 0 C2.64 0 5.28 0 8 0 C7.67 0.66 7.34 1.32 7 2 C4.67843403 2.40729228 2.3431213 2.74438677 0 3 C0 2.01 0 1.02 0 0 Z " fill="#385751" transform="translate(234,160)"/>
</svg>
